<svg width="25" height="25" viewBox="0 0 25 25" fill="none" xmlns="http://www.w3.org/2000/svg">
<g clip-path="url(#clip0_40_2)">
<path d="M24.8599 15.53C24.7762 15.4719 24.6768 15.4408 24.5749 15.4408C24.473 15.4408 24.3736 15.4719 24.2899 15.53C22.2377 16.7875 19.8217 17.3171 17.4316 17.0333C15.0416 16.7496 12.8168 15.669 11.116 13.966C9.41527 12.2629 8.33775 10.0366 8.05725 7.6462C7.77675 5.25575 8.30961 2.8405 9.56989 0.789991C9.64422 0.704901 9.68753 0.597148 9.69278 0.48429C9.69803 0.371432 9.6649 0.260123 9.5988 0.168502C9.53269 0.0768808 9.4375 0.0103491 9.32875 -0.0202513C9.21999 -0.0508517 9.10407 -0.0437167 8.99989 -9.11951e-06C6.90323 0.655833 5.01122 1.84148 3.50675 3.44231C2.00228 5.04314 0.936233 7.00503 0.411653 9.13831C-0.112928 11.2716 -0.0782962 13.5041 0.512199 15.6201C1.10269 17.7361 2.22908 19.664 3.78248 21.2174C5.33588 22.7708 7.26376 23.8972 9.37975 24.4877C11.4957 25.0782 13.7283 25.1128 15.8616 24.5882C17.9949 24.0636 19.9567 22.9976 21.5576 21.4931C23.1584 19.9887 24.344 18.0966 24.9999 16C25.0189 15.9162 25.016 15.829 24.9915 15.7466C24.9669 15.6643 24.9216 15.5897 24.8599 15.53Z" fill="white"/>
</g>
<defs>
<clipPath id="clip0_40_2">
<rect width="25" height="25" fill="white"/>
</clipPath>
</defs>
</svg>
